HIERARCHY
ROOT Hips
{
	OFFSET 20.463800 7.826293 43.778099
	CHANNELS 6 Xposition Yposition Zposition Zrotation Xrotation Yrotation
	JOINT Chest
	{
		OFFSET -0.076000 1.394599 8.347801
		CHANNELS 6 Xposition Yposition Zposition Zrotation Xrotation Yrotation
		JOINT Chest2
		{
			OFFSET 0.000000 0.000000 3.321602
			CHANNELS 6 Xposition Yposition Zposition Zrotation Xrotation Yrotation
			JOINT Neck
			{
				OFFSET 0.000000 -0.000002 7.732101
				CHANNELS 6 Xposition Yposition Zposition Zrotation Xrotation Yrotation
				JOINT Head
				{
					OFFSET 0.000000 0.000000 2.173897
					CHANNELS 6 Xposition Yposition Zposition Zrotation Xrotation Yrotation
					End Site
					{
						OFFSET 0.000000 -0.000002 10.080803
					}
				}
			}
			JOINT LeftCollar
			{
				OFFSET 2.718100 -2.003101 4.670502
				CHANNELS 6 Xposition Yposition Zposition Zrotation Xrotation Yrotation
				JOINT LeftShoulder
				{
					OFFSET 4.147100 0.000000 0.000000
					CHANNELS 6 Xposition Yposition Zposition Zrotation Xrotation Yrotation
					JOINT LeftElbow
					{
						OFFSET 0.000000 0.000002 -10.254799
						CHANNELS 6 Xposition Yposition Zposition Zrotation Xrotation Yrotation
						JOINT LeftWrist
						{
							OFFSET 0.000000 0.000002 -12.664398
							CHANNELS 6 Xposition Yposition Zposition Zrotation Xrotation Yrotation
							End Site
							{
								OFFSET 0.000000 0.000000 -2.173901
							}
						}
					}
				}
			}
			JOINT RightCollar
			{
				OFFSET -2.489500 -2.085301 4.979698
				CHANNELS 6 Xposition Yposition Zposition Zrotation Xrotation Yrotation
				JOINT RightShoulder
				{
					OFFSET -4.160400 0.000000 0.000000
					CHANNELS 6 Xposition Yposition Zposition Zrotation Xrotation Yrotation
					JOINT RightElbow
					{
						OFFSET 0.000000 0.000002 -10.253998
						CHANNELS 6 Xposition Yposition Zposition Zrotation Xrotation Yrotation
						JOINT RightWrist
						{
							OFFSET 0.000000 0.000002 -12.768700
							CHANNELS 6 Xposition Yposition Zposition Zrotation Xrotation Yrotation
							End Site
							{
								OFFSET 0.000000 0.000000 -2.173901
							}
						}
					}
				}
			}
		}
	}
	JOINT LeftHip
	{
		OFFSET 2.212400 -0.073599 -2.641499
		CHANNELS 6 Xposition Yposition Zposition Zrotation Xrotation Yrotation
		JOINT LeftKnee
		{
			OFFSET 0.000000 0.000003 -17.950598
			CHANNELS 6 Xposition Yposition Zposition Zrotation Xrotation Yrotation
			JOINT LeftAnkle
			{
				OFFSET 0.000000 0.000003 -19.053900
				CHANNELS 6 Xposition Yposition Zposition Zrotation Xrotation Yrotation
				End Site
				{
					OFFSET 0.000000 -8.430400 -0.000001
				}
			}
		}
	}
	JOINT RightHip
	{
		OFFSET -2.162800 -0.306099 -2.581299
		CHANNELS 6 Xposition Yposition Zposition Zrotation Xrotation Yrotation
		JOINT RightKnee
		{
			OFFSET 0.000000 0.000003 -18.327099
			CHANNELS 6 Xposition Yposition Zposition Zrotation Xrotation Yrotation
			JOINT RightAnkle
			{
				OFFSET 0.000000 0.000003 -18.423401
				CHANNELS 6 Xposition Yposition Zposition Zrotation Xrotation Yrotation
				End Site
				{
					OFFSET 0.000000 -8.995800 -0.000002
				}
			}
		}
	}
}
MOTION
Frames: 9
Frame Time: 0.016667
-43.854095 32.747791 44.211613 -2.689738 3.365356 5.175150 -0.076004 1.394602 8.347806 1.982948 -0.478742 5.096797 -0.000001 0.000004 3.321594 -10.125491 -3.567620 -0.948085 -0.000006 -0.000003 7.732096 55.719508 5.627163 -7.326189 -0.000001 0.000003 2.173895 7.681285 4.728193 9.935532 2.718099 -2.003102 4.670500 1.584324 0.774504 2.474043 4.147109 0.000001 0.000003 -23.479296 -13.632176 -115.869911 -0.000007 0.000001 -10.254797 59.652345 -12.655958 5.661003 -0.000001 0.000010 -12.664402 249.173443 181.602040 -125.784914 -2.489505 -2.085306 4.979692 -5.622137 0.037622 20.205134 -4.160405 0.000000 0.000008 39.262837 -31.610027 127.164940 -0.000003 -0.000003 -10.254011 -58.393944 -6.971993 -7.960036 0.000003 0.000004 -12.768696 -54.729196 -18.106577 318.088193 2.212406 -0.073599 -2.641500 162.452470 -2.738161 69.339732 -0.000002 0.000003 -17.950607 -187.586583 10.336912 97.993831 0.000003 0.000008 -19.053902 53.693432 -7.357054 53.852053 -2.162801 -0.306099 -2.581296 -3.946114 -10.814397 0.440275 0.000001 -0.000004 -18.327103 -27.778497 34.702183 -3.670639 -0.000000 0.000003 -18.423403 15.696832 9.195586 6.655347 
-44.099304 32.814892 44.095306 -3.884934 3.393408 5.277783 -0.076005 1.394592 8.347795 3.258032 -1.010875 4.245829 0.000004 -0.000001 3.321602 -10.196546 -3.538182 -0.920272 0.000003 -0.000005 7.732095 57.086779 4.670669 -6.212926 0.000000 -0.000006 2.173900 7.393154 3.770997 9.769908 2.718112 -2.003100 4.670504 1.714237 0.199493 3.676074 4.147103 0.000002 -0.000001 -22.303624 -13.135202 -114.598867 0.000007 0.000005 -10.254795 60.487390 -10.427821 3.789109 0.000000 0.000002 -12.664396 255.045411 180.891290 -129.982817 -2.489497 -2.085304 4.979697 -5.905093 -0.748149 22.344460 -4.160392 -0.000001 0.000012 33.725292 -30.145224 122.057188 -0.000006 0.000003 -10.254015 -56.206539 -5.737137 -6.453365 -0.000006 -0.000002 -12.768703 -68.014914 -16.986399 324.186623 2.212397 -0.073602 -2.641507 164.169348 -1.602129 70.144984 -0.000001 -0.000000 -17.950609 -188.886149 7.221178 100.223450 -0.000001 0.000007 -19.053909 55.225245 -7.187847 53.571578 -2.162802 -0.306100 -2.581308 -3.938065 -11.349255 -0.068364 -0.000007 -0.000005 -18.327097 -26.929103 35.573934 -3.492632 -0.000002 0.000002 -18.423401 16.126524 8.329150 6.124172 
-44.312691 32.901493 44.011009 -3.606246 3.414705 5.084158 -0.076000 1.394591 8.347795 2.976738 -0.992187 4.522114 -0.000002 -0.000001 3.321597 -10.887504 -3.901363 -0.992743 -0.000001 0.000000 7.732096 58.165351 3.266325 -5.170378 0.000001 0.000003 2.173901 8.339305 3.721206 10.006528 2.718103 -2.003097 4.670503 0.277976 4.560809 4.979613 4.147104 0.000000 0.000001 -18.974419 -16.274604 -116.336017 0.000005 0.000002 -10.254792 69.896345 -7.718802 3.839663 0.000000 0.000005 -12.664393 245.778975 179.765306 -134.657302 -2.489501 -2.085301 4.979692 -4.965889 0.926493 20.421453 -4.160395 -0.000003 0.000004 29.995773 -29.667538 121.832830 -0.000000 -0.000006 -10.253995 -53.546320 -5.217813 -5.805414 0.000003 -0.000001 -12.768703 -72.509486 -15.366211 332.760505 2.212395 -0.073604 -2.641508 163.720864 -1.191660 70.653820 -0.000001 -0.000001 -17.950609 -189.513420 5.660458 102.072895 -0.000005 0.000011 -19.053905 56.497436 -7.612099 56.042126 -2.162799 -0.306102 -2.581303 -6.016489 -12.047419 -0.433599 0.000003 -0.000004 -18.327101 -25.567490 36.682197 -2.894690 -0.000002 0.000002 -18.423399 16.446534 8.105083 6.659271 
-44.516891 32.955692 43.998508 -4.514099 3.669459 5.307124 -0.075997 1.394597 8.347793 3.913721 -1.767745 4.103594 -0.000003 -0.000005 3.321601 -11.341771 -3.652336 -1.040171 0.000001 -0.000003 7.732094 59.804303 2.249180 -4.524453 0.000002 0.000002 2.173888 8.428228 3.232820 9.746946 2.718102 -2.003101 4.670504 -0.034334 1.752454 4.411787 4.147106 0.000003 -0.000000 -14.504050 -11.596690 -112.837259 -0.000004 0.000005 -10.254792 74.553222 -6.644811 3.731387 -0.000001 0.000004 -12.664398 245.253269 180.195048 -139.998142 -2.489500 -2.085301 4.979688 -4.678454 1.138985 21.646195 -4.160397 -0.000001 -0.000005 23.869273 -28.474562 117.555929 -0.000002 0.000003 -10.254006 -48.683365 -5.559409 -5.270213 0.000001 -0.000000 -12.768700 -74.773728 -15.538354 337.052787 2.212407 -0.073600 -2.641501 163.997978 -1.348443 71.266003 -0.000003 0.000001 -17.950607 -189.573075 5.327806 103.876092 0.000004 0.000001 -19.053904 56.404938 -7.956604 55.941493 -2.162797 -0.306099 -2.581305 -5.232046 -12.477177 -0.697777 -0.000003 -0.000006 -18.327089 -25.497725 37.023307 -3.334311 -0.000008 0.000005 -18.423399 15.660809 7.999747 8.172572 
-44.743500 33.032894 43.977016 -4.819128 3.828461 5.287214 -0.076000 1.394595 8.347803 4.186375 -1.763136 4.078147 -0.000007 0.000002 3.321598 -11.357110 -3.608494 -1.037117 -0.000004 0.000002 7.732101 61.056318 0.847039 -3.860739 -0.000003 -0.000001 2.173893 8.591498 3.270960 10.804945 2.718096 -2.003101 4.670505 1.408726 -0.032155 3.517246 4.147110 0.000003 0.000005 -14.407541 -11.648803 -110.417555 -0.000006 0.000002 -10.254791 70.255182 -6.201355 3.292176 -0.000001 -0.000002 -12.664393 251.395494 180.477995 -143.953163 -2.489506 -2.085301 4.979694 -4.532905 0.177572 22.215808 -4.160395 0.000004 -0.000001 19.054910 -27.316314 113.756876 -0.000001 0.000007 -10.254004 -44.861441 -4.791157 -4.312721 -0.000001 -0.000005 -12.768707 -74.242408 -16.318049 333.156219 2.212391 -0.073602 -2.641500 163.690114 -1.530122 71.593722 -0.000009 0.000002 -17.950605 -189.616720 5.228103 105.404893 0.000003 0.000006 -19.053905 56.286373 -8.056468 56.927052 -2.162800 -0.306100 -2.581290 -5.803055 -12.863798 -1.065399 -0.000007 -0.000006 -18.327097 -24.765718 37.380891 -3.561905 -0.000004 0.000002 -18.423397 14.881252 7.972498 8.829818 
-44.968193 33.140194 43.989109 -4.328199 4.372181 5.211047 -0.076000 1.394598 8.347799 3.661112 -2.424791 4.380660 -0.000001 0.000005 3.321595 -11.724679 -3.631896 -1.104255 0.000002 0.000000 7.732098 62.908808 -0.560203 -3.913835 0.000002 -0.000000 2.173901 8.739030 3.416060 10.883468 2.718105 -2.003099 4.670501 1.852818 -0.205375 3.382158 4.147093 0.000000 0.000009 -12.988541 -10.471888 -109.412951 0.000001 0.000005 -10.254789 70.097740 -4.919055 2.560567 -0.000002 0.000009 -12.664396 252.178534 179.688289 -143.640886 -2.489500 -2.085299 4.979690 -3.504841 1.585863 21.117625 -4.160406 -0.000004 0.000008 15.175463 -26.781109 112.213267 0.000001 0.000004 -10.254004 -45.055616 -4.223433 -3.145014 -0.000003 0.000003 -12.768705 -67.763905 -17.130017 330.062335 2.212401 -0.073601 -2.641499 162.558939 -1.416046 72.052779 0.000004 0.000002 -17.950600 -189.503380 4.218397 106.574167 0.000006 0.000007 -19.053902 56.548717 -7.642781 55.984936 -2.162798 -0.306101 -2.581300 -6.686287 -13.700946 -1.266127 -0.000008 -0.000001 -18.327099 -24.590394 37.907014 -3.579725 -0.000005 -0.000002 -18.423399 15.697043 7.483629 7.234321 
-45.129105 33.203289 43.955914 -5.052985 4.079856 4.945843 -0.075998 1.394598 8.347799 4.481445 -2.673070 4.604270 0.000002 -0.000003 3.321607 -11.405753 -3.479569 -1.026559 0.000007 0.000005 7.732107 61.943587 -0.704466 -3.313733 0.000002 0.000005 2.173892 9.215582 2.347169 11.156019 2.718101 -2.003092 4.670503 0.651502 0.910458 4.861923 4.147106 0.000002 0.000005 -11.156499 -9.197865 -110.026165 0.000003 0.000003 -10.254793 72.187989 -3.634432 1.598189 -0.000002 0.000011 -12.664397 251.102916 178.958825 -143.203754 -2.489498 -2.085295 4.979693 -3.372204 1.703798 20.177535 -4.160398 0.000000 0.000003 12.341410 -24.666701 110.788476 0.000003 0.000003 -10.253992 -44.749395 -4.384742 -2.512438 -0.000004 0.000003 -12.768686 -67.049385 -16.898924 330.730464 2.212397 -0.073603 -2.641501 162.805468 -1.346177 71.943885 -0.000006 0.000003 -17.950605 -190.233869 3.839580 108.044365 0.000007 0.000008 -19.053904 56.482171 -8.079148 56.274653 -2.162799 -0.306098 -2.581300 -5.314308 -13.422082 -0.859191 -0.000002 0.000001 -18.327099 -25.010674 37.921402 -4.129542 -0.000001 -0.000004 -18.423399 15.264522 8.104094 8.978126 
-45.321495 33.290092 43.940010 -5.876445 3.758093 4.875064 -0.076001 1.394592 8.347800 5.378080 -2.695484 4.275466 -0.000003 -0.000004 3.321602 -10.879410 -3.228948 -0.896832 0.000005 -0.000003 7.732098 62.391435 -0.792080 -2.984717 0.000000 0.000006 2.173887 8.598628 2.172674 10.902810 2.718106 -2.003103 4.670497 -0.597053 1.879125 4.134594 4.147110 0.000001 -0.000001 -9.443651 -10.622653 -108.236908 0.000004 0.000006 -10.254793 72.131340 -2.887656 1.302293 -0.000001 0.000010 -12.664392 250.265972 178.867915 -143.670966 -2.489493 -2.085306 4.979689 -3.926922 0.287541 21.186238 -4.160403 -0.000001 0.000006 11.711913 -22.830739 109.050834 0.000004 0.000002 -10.253994 -47.425442 -2.832494 -2.189466 -0.000008 0.000004 -12.768694 -66.332113 -16.310780 331.850724 2.212400 -0.073606 -2.641500 163.163083 -1.737291 72.169479 -0.000005 0.000002 -17.950611 -190.467939 3.867967 109.086795 0.000003 0.000008 -19.053902 56.290301 -6.982104 56.306741 -2.162803 -0.306107 -2.581297 -5.134998 -13.277978 -0.922343 0.000000 -0.000001 -18.327099 -24.237269 37.971358 -4.624427 -0.000004 0.000001 -18.423401 14.829580 7.674481 8.873361 
-45.490799 33.366493 43.910007 -6.366494 3.658752 4.737858 -0.076005 1.394596 8.347806 5.257776 -2.923737 4.127226 0.000002 -0.000006 3.321603 -10.197338 -3.383314 -0.836490 -0.000002 -0.000003 7.732098 62.752001 -0.957047 -2.757020 -0.000002 -0.000002 2.173902 8.979778 1.847942 10.808716 2.718099 -2.003102 4.670502 -1.911312 2.869627 5.981416 4.147096 0.000003 0.000008 -7.068172 -9.865061 -108.616851 0.000001 0.000001 -10.254792 72.102667 -3.011360 1.087561 -0.000002 0.000004 -12.664397 250.907054 178.950492 -144.506504 -2.489498 -2.085302 4.979692 -3.482439 1.417563 21.083187 -4.160401 -0.000003 0.000005 8.869598 -21.825658 107.571976 0.000001 -0.000001 -10.254005 -53.282733 -2.855624 -3.179339 -0.000002 0.000008 -12.768692 -64.873307 -16.659948 332.508116 2.212399 -0.073602 -2.641495 162.590686 -3.001408 72.044432 -0.000009 -0.000000 -17.950607 -189.751398 4.750289 110.089617 0.000001 0.000007 -19.053900 55.439952 -7.230177 56.572626 -2.162799 -0.306098 -2.581297 -6.120836 -13.367532 -1.272074 -0.000003 -0.000007 -18.327095 -22.843168 38.129333 -4.739832 0.000001 -0.000001 -18.423403 14.627316 8.078919 10.179632 
